<svg width="21" height="20" viewBox="0 0 21 20" fill="none" xmlns="http://www.w3.org/2000/svg">
<path fill-rule="evenodd" clip-rule="evenodd" d="M15.0792 8C15.0792 11.2787 12.3607 14 8.92849 14C5.49623 14 2.77783 11.2787 2.77783 8C2.77783 4.72131 5.49623 2 8.92849 2C12.3607 2 15.0792 4.72131 15.0792 8ZM13.8686 14.3637C12.4979 15.3903 10.7858 16 8.92849 16C4.42701 16 0.777832 12.4183 0.777832 8C0.777832 3.58172 4.42701 0 8.92849 0C13.43 0 17.0792 3.58172 17.0792 8C17.0792 9.88002 16.4184 11.6086 15.3125 12.9742L19.8791 18.3528C20.2365 18.7738 20.185 19.4049 19.764 19.7623C19.343 20.1198 18.7119 20.0682 18.3545 19.6472L13.8686 14.3637Z" fill="#9E9E9E"/>
</svg>
